<svg xmlns="http://www.w3.org/2000/svg" xml:space="preserve" width="128" height="128" data-id="lg_LLXNEGJHikubbZAGj4" data-version="1"><g data-padding="20"><g transform="translate(53.813 55.228)scale(.17655)"><rect width="199.853" height="350.279" x="-319.35" y="-399.7" fill="none" stroke="#009c3e" stroke-width="12.5" paint-order="stroke" rx="0" ry="0" transform="translate(400 400)scale(1.56)" vector-effect="non-scaling-stroke"/><path fill="#009c3e" d="M145.145-101.79q3.38-7.938 3.42-17.055a44.016 44.016 0 0 0-52.466-43.152 43.937 43.937 0 0 0-78.404-.157q-3.654-.668-7.467-.707a44.016 44.016 0 0 0-40.636 61.072 43.859 43.859 0 0 0 17.764 78.6c3.851 20.396 21.733 35.763 43.23 35.763 7.742 0 15.012-1.769 21.34-5.306-4.087 40.361-.315 101.198 43.623 160.148h13.48A225.2 225.2 0 0 1 62.104 6.876a44.016 44.016 0 0 0 65.238-29.987 44.016 44.016 0 0 0 17.803-78.678M56.602-65.044a21.733 21.733 0 1 1 0-43.466 21.733 21.733 0 0 1 0 43.466" vector-effect="non-scaling-stroke"/><path fill="#009c3e" d="M-56.022 92.437c8.15 8.15 15.811 15.843 15.811 31.459s-7.693 23.309-15.81 31.459c-8.248 8.248-16.79 16.789-16.79 33.74 0 16.985 8.542 25.527 16.79 33.774 8.15 8.15 15.81 15.779 15.81 31.427s-7.693 23.309-15.81 31.459c-8.248 8.248-16.79 16.756-16.79 33.74h260.8c0-16.951-8.54-25.492-16.789-33.74-8.15-8.15-15.81-15.844-15.81-31.46s7.693-23.308 15.81-31.458c8.248-8.248 16.79-16.79 16.79-33.741 0-16.985-8.542-25.526-16.79-33.774-8.15-8.15-15.81-15.778-15.81-31.426s7.693-23.31 15.81-31.46c8.248-8.247 16.79-16.756 16.79-33.74h-260.8c0 16.952 8.54 25.493 16.788 33.74" vector-effect="non-scaling-stroke"/><path fill="#fff" stroke="transparent" stroke-width="3.63" d="M118.39 177.066q0 13.81-4.76 24.87-4.76 11.07-13.17 18.77-8.41 7.69-19.91 11.82-11.5 4.12-24.91 4.12t-24.91-4.12q-11.5-4.13-19.91-11.82-8.41-7.7-13.17-18.77-4.76-11.06-4.76-24.87 0-14.04 4.72-25.11 4.72-11.06 13.09-18.72t19.87-11.74q11.5-4.09 25.07-4.09t25.07 4.09q11.5 4.08 19.87 11.74t13.09 18.72q4.72 11.07 4.72 25.11Zm-32.05 0q0-5.23-.47-10.71-.48-5.47-1.75-10.63t-3.45-9.68-5.59-7.89-8.21-5.32q-4.8-1.94-11.23-1.94-6.51 0-11.34 1.94-4.84 1.95-8.26 5.28-3.41 3.33-5.55 7.85-2.14 4.53-3.37 9.64-1.23 5.12-1.71 10.63-.47 5.52-.47 10.83 0 5.24.47 10.71.48 5.48 1.75 10.59 1.27 5.12 3.45 9.64t5.59 7.9q3.41 3.37 8.21 5.35t11.23 1.98q6.27 0 10.95-2.02t8.09-5.47 5.67-8.02q2.26-4.56 3.57-9.67 1.31-5.12 1.87-10.52.55-5.39.55-10.47Z" font-family="Aclonica" font-size="162.475"/></g><path fill="transparent" stroke="transparent" stroke-width=".189" d="M34.571 12.5H93.43v103H34.57z"/></g></svg>